<?xml version="1.0" encoding="UTF-8" standalone="no"?>
<!-- Created with Inkscape (http://www.inkscape.org/) -->

<svg
   width="23.398186"
   height="22.193779"
   viewBox="0 0 6.1907698 5.8721038"
   version="1.1"
   id="svg1"
   xml:space="preserve"
   xmlns="http://www.w3.org/2000/svg"
   xmlns:svg="http://www.w3.org/2000/svg"><defs
     id="defs1" /><g
     id="layer1"
     transform="translate(18.696692,31.2614)"><path
       style="font-weight:bold;font-size:10.1107px;line-height:1.2;font-family:Gadugi;-inkscape-font-specification:'Gadugi, Bold';stroke-width:0.745998;paint-order:stroke fill markers"
       d="m -17.989403,-29.998372 q -0.3109,0 -0.5091,-0.182654 -0.19819,-0.186539 -0.19819,-0.454689 0,-0.275923 0.19819,-0.450803 0.1982,-0.174881 0.5091,-0.174881 0.31478,0 0.5091,0.174881 0.1982,0.17488 0.1982,0.450803 0,0.279809 -0.1982,0.458576 -0.19432,0.178767 -0.5091,0.178767 z m 0.60625,4.609076 h -1.22805 v -3.979506 h 1.22805 z m 4.87723,0 h -1.22417 v -2.211268 q 0,-0.924925 -0.66066,-0.924925 -0.31867,0 -0.52464,0.244833 -0.20597,0.244833 -0.20597,0.621798 v 2.269562 h -1.22805 v -3.979506 h 1.22805 v 0.62957 h 0.0155 q 0.43914,-0.726726 1.27857,-0.726726 1.32132,0 1.32132,1.639992 z"
       id="path43"
       aria-label="in" /></g></svg>
