<?xml version="1.0" encoding="UTF-8" standalone="no"?>
<!-- Created with Inkscape (http://www.inkscape.org/) -->

<svg
   width="38.902298"
   height="26.066338"
   viewBox="0 0 10.292899 6.8967182"
   version="1.1"
   id="svg1"
   xml:space="preserve"
   xmlns="http://www.w3.org/2000/svg"
   xmlns:svg="http://www.w3.org/2000/svg"><defs
     id="defs1" /><path
     d="m 1.2205936,1.0705236e-5 c -0.04228,0 -0.08391,0.0021000048 -0.125057,0.0062000048 -0.04115,0.0042 -0.08163,0.0105 -0.12144,0.0186 -0.03981,0.0081 -0.07903,0.01812 -0.117305,0.02997 -0.03828,0.01185 -0.0756,0.02543 -0.112138,0.04082 -0.03654,0.0154 -0.07237,0.03242 -0.10697,0.05116 -0.0346,0.01874 -0.06779,0.03909 -0.100252,0.06098 -0.03246,0.02189 -0.06393,0.04545 -0.09405,0.07028 -0.03012,0.02483 -0.05924,0.05097 -0.08682,0.07855 -0.02758,0.02758 -0.05372,0.0567 -0.07855,0.08682 -0.02483,0.03012 -0.04839,0.06159 -0.07028,0.09405 -0.02189,0.03246 -0.04223,0.06565 -0.06098,0.100252 -0.01874,0.0346 -0.03576,0.07043 -0.05116,0.10697 -0.0154,0.03654 -0.02898,0.07386 -0.04082,0.112138 -0.01185,0.03828 -0.02187,0.07749 -0.02997,0.117306 -0.0081,0.03981 -0.01445,0.08029 -0.0186,0.12143899 -0.0042,0.04115 -0.00620000432,0.08277 -0.00620000432,0.125057 v 4.455025 c 0,0.04228 0.00210000432,0.08442 0.00620000432,0.125574 0.0042,0.04115 0.0105,0.08163 0.0186,0.12144 0.0081,0.03981 0.01812,0.07903 0.02997,0.117305 0.01185,0.03828 0.02543,0.0756 0.04082,0.112138 0.0154,0.03654 0.03242,0.07185 0.05116,0.106453 0.01874,0.0346 0.03909,0.06831 0.06098,0.10077 0.02189,0.03246 0.04545,0.06393 0.07028,0.09405 0.02483,0.03012 0.05097,0.05872 0.07855,0.0863 0.02758,0.02758 0.0567,0.05423 0.08682,0.07906 0.03012,0.02483 0.06159,0.04788 0.09405,0.06976 0.03246,0.02189 0.06565,0.04224 0.100252,0.06098 0.0346,0.01874 0.07043,0.03628 0.10697,0.05168 0.03654,0.0154 0.07386,0.02898 0.112138,0.04082 0.03828,0.01185 0.07749,0.02187 0.117305,0.02997 0.03981,0.0081 0.08029,0.01394 0.12144,0.01809 0.04115,0.0042 0.08277,0.0067 0.125057,0.0067 h 7.853784 c 0.04302,0 0.08543,-0.0021 0.127124,-0.0062 0.04169,-0.0041 0.0828,-0.01009 0.12299,-0.01809 0.04019,-0.008 0.07932,-0.01826 0.117822,-0.02997 0.0385,-0.01171 0.07603,-0.02508 0.112655,-0.04031 0.03663,-0.01523 0.07239,-0.03207 0.10697,-0.05064 0.03458,-0.01857 0.06791,-0.03875 0.100253,-0.06046 0.03234,-0.02172 0.0636,-0.04509 0.09353,-0.06976 0.02993,-0.02467 0.05845,-0.05059 0.08578,-0.07803 0.02733,-0.02745 0.05348,-0.05627 0.07803,-0.0863 0.02455,-0.03003 0.04766,-0.06163 0.06925,-0.09405 0.02159,-0.03242 0.04201,-0.06563 0.06046,-0.100252 0.01845,-0.03462 0.03501,-0.07033 0.05013,-0.106971 0.01512,-0.03664 0.02869,-0.07419 0.04031,-0.112654 0.01161,-0.03846 0.02153,-0.07824 0.02945,-0.118339 0.0079,-0.0401 0.01352,-0.08092 0.01757,-0.122473 0.0041,-0.04155 0.0062,-0.0838 0.0062,-0.126608 v -4.455025 c 0,-0.04281 -0.0021,-0.08506 -0.0062,-0.126607 -0.0041,-0.04155 -0.0096,-0.08237 -0.01757,-0.12247299 -0.0079,-0.0401 -0.01784,-0.07936 -0.02945,-0.117823 -0.01161,-0.03846 -0.02519,-0.07602 -0.04031,-0.112654 -0.01512,-0.03664 -0.03168,-0.07235 -0.05013,-0.10697 -0.01845,-0.03462 -0.03887,-0.06835 -0.06046,-0.100769 -0.02159,-0.03242 -0.04469,-0.06351 -0.06925,-0.09353 -0.02455,-0.03003 -0.0507,-0.05885 -0.07803,-0.0863 -0.02733,-0.02745 -0.05585,-0.05336 -0.08578,-0.07803 -0.02993,-0.02467 -0.06119,-0.04805 -0.09353,-0.06976 -0.03234,-0.02172 -0.06567,-0.04189 -0.100253,-0.06046 -0.03458,-0.01857 -0.07034,-0.03541 -0.10697,-0.05064 -0.03663,-0.01523 -0.07415,-0.0286 -0.112655,-0.04031 -0.0385,-0.01171 -0.07763,-0.02198 -0.117822,-0.02997 -0.04019,-0.008 -0.0813,-0.014 -0.12299,-0.01809 C 9.1598116,0.00209971 9.1173916,-2.94744e-7 9.0743776,-2.94744e-7 Z M 1.3993946,0.69867571 h 7.494116 L 5.1464526,2.8618517 Z m -0.688847,0.41134499 3.735172,2.156457 0.700733,0.404627 0.700732,-0.404627 3.735173,-2.156457 c 3.45e-4,0.0016 0.0012,0.003 0.0015,0.0047 0.0069,0.034 0.01085,0.0688 0.01085,0.104904 v 4.456058 c 0,0.0361 -0.0039,0.07091 -0.01085,0.104903 -0.0069,0.034 -0.01682,0.06698 -0.02997,0.09819 -0.01315,0.0312 -0.02936,0.06064 -0.04806,0.08837 -0.0187,0.02772 -0.04001,0.05396 -0.06356,0.07751 -0.02356,0.02356 -0.04927,0.04435 -0.077,0.06305 -0.02772,0.0187 -0.05716,0.0349 -0.08837,0.04806 -0.0312,0.01316 -0.06419,0.02357 -0.09819,0.03049 -0.034,0.0069 -0.06932,0.01034 -0.10542,0.01034 h -7.853268 c -0.0361,0 -0.07142,-0.0034 -0.10542,-0.01034 -0.03399,-0.0069 -0.06698,-0.01733 -0.09819,-0.03049 -0.0312,-0.01315 -0.06064,-0.02936 -0.08837,-0.04806 -0.02772,-0.0187 -0.05344,-0.03949 -0.077,-0.06305 -0.02356,-0.02356 -0.04486,-0.04979 -0.06356,-0.07751 -0.0187,-0.02772 -0.03491,-0.05716 -0.04806,-0.08837 -0.01315,-0.0312 -0.02357,-0.06419 -0.03049,-0.09819 -0.0069,-0.034 -0.01033,-0.0688 -0.01033,-0.104903 v -4.456058 c 0,-0.0361 0.0034,-0.07091 0.01033,-0.104904 3.3e-4,-0.0016 0.0012,-0.003 0.0016,-0.0047 z"
     id="path123" /></svg>
