<?xml version="1.0" encoding="UTF-8" standalone="no"?>
<!-- Created with Inkscape (http://www.inkscape.org/) -->

<svg
   width="24.302338"
   height="21.861588"
   viewBox="0 0 6.4299934 5.7842115"
   version="1.1"
   id="svg1"
   xml:space="preserve"
   xmlns="http://www.w3.org/2000/svg"
   xmlns:svg="http://www.w3.org/2000/svg"><defs
     id="defs1" /><path
     d="m 0.83830671,0.03578025 c -0.280476,0.166535 -0.833065,0.801355 -0.83830700195462,0.96783905 v 0.275575 c 0,0.349318 0.32651800195462,0.656336 0.62297700195462,0.656336 0.355975,0 0.65256399,-0.295021 0.65259099,-0.645175 0,0.350154 0.286423,0.645175 0.642421,0.645175 0.356025,0 0.633251,-0.295021 0.633251,-0.645175 0,0.350154 0.304557,0.645175 0.660556,0.645175 h 0.0064 c 0.356026,0 0.660584,-0.295021 0.660584,-0.645175 0,0.350154 0.277252,0.645175 0.633224,0.645175 0.355998,0 0.64242,-0.295021 0.64242,-0.645175 0,0.350154 0.296644,0.645175 0.652591,0.645175 0.296459,0 0.622978,-0.306969 0.622978,-0.656336 V 1.0036193 C 6.4246927,0.83710925 5.8721597,0.20226025 5.5917377,0.03578025 4.7199937,0.00517025 4.1156487,-9.9743474e-5 3.2149487,2.56526e-7 2.3142727,7.9256526e-5 1.0863467,0.01413025 0.83820971,0.03578025 Z M 2.5467307,1.7710113 a 0.73440213,0.73440213 0 0 1 -0.12526,0.161296 c -0.134381,0.131392 -0.318577,0.212838 -0.521642,0.212838 a 0.74637796,0.74637796 0 0 1 -0.522743,-0.212944 c -0.04869,-0.04767 -0.08569,-0.09869 -0.119574,-0.15807 l -1.85e-4,9.5e-5 c -0.03386,0.05948 -0.08103,0.110448 -0.129822,0.158199 a 0.74684966,0.74684966 0 0 1 -0.52274199,0.212789 c -0.02448,0 -0.04994,-0.0067 -0.07055,-0.01383 -0.02862,0.298002 -0.0407,0.582802 -0.04497,0.790451 l -5.2e-5,9.96e-4 c -5.47e-4,0.105449 -10e-4,0.192163 -0.0016,0.312627 0.0055,0.625261 -0.06193,2.026561 0.275679,2.370872 0.52316299,0.121983 1.48583899,0.177537 2.45163299,0.17788 h 1.86e-4 c 0.965768,-3.73e-4 1.928443,-0.0559 2.451605,-0.17788 0.337603,-0.344341 0.270177,-1.745637 0.27568,-2.370897 -5.48e-4,-0.120439 -0.001,-0.207151 -0.0016,-0.312627 l -8e-5,-9.95e-4 c -0.0043,-0.207704 -0.01633,-0.492475 -0.04495,-0.790482 -0.0206,0.0071 -0.04604,0.01383 -0.07055,0.01383 a 0.74684966,0.74684966 0 0 1 -0.522666,-0.212789 c -0.0488,-0.04777 -0.09597,-0.09869 -0.129848,-0.158199 l -1.86e-4,-9.4e-5 c -0.03391,0.05938 -0.07088,0.110403 -0.119574,0.158069 a 0.74632556,0.74632556 0 0 1 -0.522717,0.212919 c -0.203038,0 -0.387261,-0.0815 -0.521641,-0.212864 a 0.73440213,0.73440213 0 0 1 -0.12526,-0.161295 0.73348496,0.73348496 0 0 1 -0.124109,0.161295 0.7465876,0.7465876 0 0 1 -0.522795,0.212889 c -0.0071,0 -0.01416,-2.78e-4 -0.02123,-4.98e-4 h -1.86e-4 c -0.0071,1.85e-4 -0.01416,4.98e-4 -0.02131,4.98e-4 a 0.7465876,0.7465876 0 0 1 -0.522794,-0.212863 0.73353741,0.73353741 0 0 1 -0.124109,-0.161295 z m -0.53684,0.694181 -5.2e-5,2.79e-4 h 3.71e-4 c 0.212603,4.63e-4 0.401465,0 0.635477,0.255396 0.184171,-0.01931 0.376622,-0.02896 0.569231,-0.02866 h 1.85e-4 c 0.192608,-2.79e-4 0.38506,0.0093 0.569257,0.02866 0.234012,-0.255426 0.422875,-0.254978 0.635478,-0.255396 h 3.71e-4 l -5.3e-5,-2.79e-4 c 0.10045,0 0.502251,0 0.782228,0.786341 l 0.300731,1.078736 c 0.222849,0.802509 -0.07135,0.822139 -0.438334,0.822847 -0.544231,-0.02025 -0.845567,-0.415487 -0.845567,-0.81066 -0.301254,0.04936 -0.652694,0.07405 -1.004132,0.07408 h -1.85e-4 c -0.351467,0 -0.702904,-0.02473 -1.004132,-0.07408 0,0.395173 -0.301362,0.790401 -0.845567,0.81066 -0.36697799,-4.98e-4 -0.66115799,-0.0203 -0.43830899,-0.822847 L 1.2276977,3.2515583 c 0.279977,-0.786341 0.681783,-0.786341 0.782228,-0.786341 z m 1.205049,0.61797 v 1.84e-4 c -5.48e-4,4.97e-4 -0.572926,0.526203 -0.675834,0.713175 l 0.374841,-0.01503 v 0.326884 c 0,0.01528 0.150418,0.0091 0.300994,0.002 h 1.85e-4 c 0.150523,0.0069 0.300968,0.01319 0.300968,-0.002 v -0.326884 l 0.374838,0.01503 c -0.102937,-0.186972 -0.675832,-0.713175 -0.675832,-0.713175 v -1.84e-4 l -7.9e-5,5.5e-5 z"
     color="#000000"
     id="path20"
     style="stroke-width:0.0262052" /></svg>
